<svg width="800" height="600" viewBox="0 0 800 600" fill="none" xmlns="http://www.w3.org/2000/svg">
  <rect width="800" height="600" fill="#1e293b"/>
  <rect x="50" y="50" width="700" height="500" fill="#334155" stroke="#64748b" stroke-width="2" rx="8"/>
  
  <!-- Graduation Cap -->
  <polygon points="400,150 320,180 480,180" fill="#fbbf24"/>
  <rect x="395" y="140" width="10" height="40" fill="#92400e"/>
  <circle cx="400" cy="140" r="5" fill="#92400e"/>
  
  <!-- Academic Symbols -->
  <circle cx="300" cy="250" r="40" fill="#3b82f6" opacity="0.8"/>
  <text x="300" y="260" font-family="system-ui" font-size="24" fill="white" text-anchor="middle" font-weight="bold">A+</text>
  
  <circle cx="500" cy="250" r="40" fill="#10b981" opacity="0.8"/>
  <text x="500" y="260" font-family="system-ui" font-size="28" fill="white" text-anchor="middle">★</text>
  
  <!-- Books Stack -->
  <rect x="350" y="320" width="100" height="15" fill="#8b5cf6" rx="2"/>
  <rect x="355" y="305" width="90" height="15" fill="#06b6d4" rx="2"/>
  <rect x="360" y="290" width="80" height="15" fill="#f59e0b" rx="2"/>
  
  <!-- Project Title -->
  <text x="400" y="400" font-family="system-ui" font-size="32" fill="#f1f5f9" text-anchor="middle" font-weight="bold">High Distinction</text>
  <text x="400" y="430" font-family="system-ui" font-size="20" fill="#94a3b8" text-anchor="middle">Academic Excellence</text>
  <text x="400" y="455" font-family="system-ui" font-size="16" fill="#64748b" text-anchor="middle">Course 1</text>
  
  <!-- Achievement Badges -->
  <rect x="250" y="500" width="100" height="30" fill="#dc2626" rx="15"/>
  <text x="300" y="520" font-family="system-ui" font-size="12" fill="white" text-anchor="middle">Excellence</text>
  
  <rect x="370" y="500" width="90" height="30" fill="#7c3aed" rx="15"/>
  <text x="415" y="520" font-family="system-ui" font-size="12" fill="white" text-anchor="middle">Research</text>
  
  <rect x="480" y="500" width="80" height="30" fill="#059669" rx="15"/>
  <text x="520" y="520" font-family="system-ui" font-size="12" fill="white" text-anchor="middle">Innovation</text>
</svg>
